<svg id="word-date" xmlns="http://www.w3.org/2000/svg" xmlns:xlink="http://www.w3.org/1999/xlink" viewBox="0 0 199 226.2">
  <defs>
    <clipPath id="clip-path" transform="translate(-164.5 -83.5)">
      <path id="sat" d="M280.6,150.2c-.2-.1-.3,0-.4.2l-.6,1.3-1.6,3.1-2.3,4.2q-1.3,2.3-2.7,4.5t-2.9,4a13.9,13.9,0,0,1-2.9,2.8h-.3l-.5-.7a5.7,5.7,0,0,1-.5-1.1,9.6,9.6,0,0,1-.3-1.3,7.1,7.1,0,0,1-.1-1.3,70.8,70.8,0,0,1,.5-8.3q.5-4,1.2-7.4t1.5-6.1q.8-2.7,1.5-4.6l.3-.7.3-.7a45,45,0,0,1,4.8-2.5,11,11,0,0,1,4.4-1q.3,0,.3-.3a.3.3,0,0,0-.3-.3,11.1,11.1,0,0,0-4.3.9A41.8,41.8,0,0,0,271,137a43.4,43.4,0,0,1,3.4-7q1.6-2.6,2.5-2.8l.2-.2a.3.3,0,0,0,0-.3l-.3-.5-.8-1-1.2-.8a2.3,2.3,0,0,0-1.5-.2,4.2,4.2,0,0,0-2.2,1.7,22.8,22.8,0,0,0-2.3,3.8,50,50,0,0,0-2.1,5q-1,2.8-1.8,5.5v.6l-3.5,1.9a3.6,3.6,0,0,1-2.5.4.9.9,0,0,1-.7-.6q-.1-.3-.3-.2c-.2.1-.2.2-.1.4a1.7,1.7,0,0,0,1,1,2.5,2.5,0,0,0,1.4,0l2.1-.8,2.5-1.3q-.7,2.7-1.4,5.7t-1.1,6l-.2,1.7-2.1,3.4-2.6,3.9-2.6,3.8-2.3,3.2-1.9,2.2a3.1,3.1,0,0,1-1.2.9h-.5a2.8,2.8,0,0,1-.3-2,24.7,24.7,0,0,1,.6-3.2q.4-1.8,1-3.4l.9-2.5a1.8,1.8,0,0,0,0-1.4,2.7,2.7,0,0,0-.6-.8l-.8-.7-.9-.5-.7-.3v-.2h-.4v.2l-.2.4-.4,1.1-1.4,3.1-1.3,2.8-1.1,2.1-.8,1.3h-.4l-.2-.3-.3-.6a5.6,5.6,0,0,1-.3-1.1,10.4,10.4,0,0,1-.1-1.6,17.2,17.2,0,0,1,.6-3.8,16.8,16.8,0,0,1,1.2-3,9.5,9.5,0,0,1,1.4-2.1,5.2,5.2,0,0,1,1.4-1.1l.6-.2h.7l.5.7.3.6.2.6c0,.2.1.3.3.2s.3-.1.2-.3v-.3l-.3-.7-.5-.9-.9-.9a5.4,5.4,0,0,0-4.2-.5,4.8,4.8,0,0,0-2.3,1.2,8.1,8.1,0,0,0-1.6,2.1,12.1,12.1,0,0,0-1,2.6,20.1,20.1,0,0,0-.4,2.1l-2.9,2.3-4.7,3.3-5.2,3.5a12.2,12.2,0,0,0-1.2-2.4,19,19,0,0,0-3.3-4.4l-4.2-4.1-2.8-2.7a35.3,35.3,0,0,1-2.6-2.8,20.2,20.2,0,0,1-2.1-3,12.1,12.1,0,0,1-1.3-3.2,10.3,10.3,0,0,1-.2-2.8l4.6.6a13.9,13.9,0,0,0,3.8-.2q10.7-2.3,9.3-9.1a4.7,4.7,0,0,0-1.3-2.2,9,9,0,0,0-2.8-1.9,13.9,13.9,0,0,0-3.9-1.1,13.7,13.7,0,0,0-4.7.2,12.9,12.9,0,0,0-7.1,4.2,14.6,14.6,0,0,0-2.2,3.5,13.5,13.5,0,0,0-1.1,4.1l-1-.2-1-.2-4.5-1.1-4.4-.9-4-.4a13.8,13.8,0,0,0-3.4.2,17.9,17.9,0,0,0-5.5,2,10.1,10.1,0,0,0-3,2.6h0a4.8,4.8,0,0,0-.8,1.9,3.2,3.2,0,0,0,.2,2.1,3.5,3.5,0,0,0,1.4,1.6l.6.2a.8.8,0,0,0,.7-.3c.1,0,.1-.1.1-.3s-.2-.4-.6-.7l-.7-.6a2.8,2.8,0,0,1-.6-.9,2.4,2.4,0,0,1-.2-1.2,3.7,3.7,0,0,1,.5-1.6,9.1,9.1,0,0,1,2.9-2.4,17.6,17.6,0,0,1,5.3-1.9,13.2,13.2,0,0,1,3.3-.2l4,.4,4.3.9,4.5,1.1,1,.3,1,.3a14.9,14.9,0,0,0,.3,4.2,5.9,5.9,0,0,0,1.1,2.3,16.6,16.6,0,0,0,2.1,2.3l2.8,2.3,3.3,2.4,3.4,2.4,3.3,2.6,2.9,2.8a17.6,17.6,0,0,1,2.3,3v.2h0l.6,1.1.5,1.2-4.3,2.9-4,2.6-3.2,2.1-2.2,1.4a4.5,4.5,0,0,0,.1-2.5,7.7,7.7,0,0,0-1.2-2.7,9.2,9.2,0,0,0-1.5-1.7,9.7,9.7,0,0,0-1.9-1.4,8.3,8.3,0,0,0-2.2-.8,5.5,5.5,0,0,0-2.4,0,13.2,13.2,0,0,0-4.9,2,10.7,10.7,0,0,0-2.9,2.9,7.7,7.7,0,0,0-1.2,3,7.1,7.1,0,0,0,0,2.5,10,10,0,0,0,2.4,4.7,13.6,13.6,0,0,0,4.8,3.3,17.9,17.9,0,0,0,5,1.4,14.4,14.4,0,0,0,4.8-.1l2.5-.7,2.9-1.1,2.9-1.6a20,20,0,0,0,2.8-2,14.8,14.8,0,0,0,4.3-5.8,11.6,11.6,0,0,0,.5-6.7v-.5l-.2-.5,5.3-3.6,4.7-3.4,2.5-1.9a17.9,17.9,0,0,0-.1,2.2,8.5,8.5,0,0,0,.1,1.6,3.4,3.4,0,0,0,.9,1.6,6.9,6.9,0,0,0,1.5,1.2l1.6.7a2.6,2.6,0,0,0,1.3.1h.2l.3-.3h0l1-1.6q.7-1.2,1.9-3.9h.1q-.3,1.2-.5,2.5t-.3,2.4a4.7,4.7,0,0,0,1.4,4.1,4.1,4.1,0,0,0,1.5.8l1.2.3h.4a4.2,4.2,0,0,0,1.7-1.4l2.5-3.1,2.9-4,2.8-4.1,2.2-3.4.3-.5c-.1.9-.2,1.8-.2,2.8a30,30,0,0,0,.1,5.2q.6,5.2,2.6,6.6l1,.4h.8a4.7,4.7,0,0,0,1.7-.8l.2-.2a15.1,15.1,0,0,0,2.9-2.8q1.5-1.8,2.9-4t2.7-4.4l2.3-4.1L280,152l.7-1.5C280.8,150.4,280.8,150.2,280.6,150.2Zm-73.7-8.7a13.6,13.6,0,0,1,1.1-2.4,18.7,18.7,0,0,1,1.5-2.1l1.7-1.8a12,12,0,0,1,4.4-2.6,6.6,6.6,0,0,1,4.1-.1,8.3,8.3,0,0,1,2.5,1.8,4.1,4.1,0,0,1,1.1,1.8q1.3,6.2-8.8,8.4a13.5,13.5,0,0,1-3.7.2l-4.5-.6A12.1,12.1,0,0,1,206.9,141.5ZM224,175.6a12.1,12.1,0,0,1-1,3.3,11.8,11.8,0,0,1-1.7,2.7,18.7,18.7,0,0,1-2.1,2.1,21.2,21.2,0,0,1-2.7,2l-2.9,1.6-2.8,1.1-2.5.7-1.7.2h-1.9a20.4,20.4,0,0,1-4.5-1.6,12.3,12.3,0,0,1-2.9-1.9,7.3,7.3,0,0,1-1.6-2.1,7.5,7.5,0,0,1-.7-2,6.6,6.6,0,0,1,.1-2.7,9.2,9.2,0,0,1,1-2.5,10.8,10.8,0,0,1,1.6-2.1,9.4,9.4,0,0,1,2-1.6,6.8,6.8,0,0,1,3.5-1.2,4.8,4.8,0,0,1,3.1,1h0l.9.9.8.9a6.9,6.9,0,0,1,1.2,3,3.7,3.7,0,0,1-.6,2.6l-.7,1.1,1.1-.7,1.5-.9,3.3-2.1,4.5-2.9,5.2-3.4v.8A10.8,10.8,0,0,1,224,175.6Z" stroke="#000" stroke-miterlimit="10" stroke-width="2"/>
    </clipPath>
    <clipPath id="clip-path-2" transform="translate(-164.5 -83.5)">
      <path id="nov" d="M332.5,201.6c-.2-.3-.4-.3-.7-.1a10.3,10.3,0,0,1-2.7,1.7,18.9,18.9,0,0,1-3.8,1.3,21.4,21.4,0,0,1-4.3.5,11.6,11.6,0,0,1-4.2-.6l-1.7-.7a16.6,16.6,0,0,0,.5-2.7,4.5,4.5,0,0,0-.2-2,5.3,5.3,0,0,0-2-3,3.2,3.2,0,0,0-2.5-.8h-.1l-.7.5q-.5.4-.2,1.6a10.1,10.1,0,0,0,4.2,6.6,39.4,39.4,0,0,1-1.5,4.6q-1,2.5-2.3,5.3t-2.7,5.5q-1.5,2.8-3,5.4t-3.1,4.9a18.1,18.1,0,0,1-1.9,2.4c-.4.1-.7.1-.8-.1a3.2,3.2,0,0,1-.8-2.1,24.3,24.3,0,0,1-.1-3.8q.1-2.2.4-4.9t.7-5.2l.8-4.9.7-3.9.4-1.9a10.4,10.4,0,0,0,.2-1.2,3,3,0,0,0-.9-2.7,9.9,9.9,0,0,0-2.6-1.9l-2.7-1.1-1.4-.4a.3.3,0,0,0-.4.2.2.2,0,0,0,0,.4,11.9,11.9,0,0,1,.5,3.7q0,2.4-.2,5.3c0,.6-.1,1.1-.1,1.7l-.8,1.1-2.1,2.8-3,3.6q-1.7,2-3.5,3.7a29.7,29.7,0,0,1-3.6,3,9.1,9.1,0,0,1-3.3,1.6h-1.3q.9-2.2,1.5-4.5t1.1-4.3q.4-2,.6-3.4a7.2,7.2,0,0,0,.1-2,4.7,4.7,0,0,0-2.1-2.6h0a8,8,0,0,0-1.8-1,6.2,6.2,0,0,0-2.1-.4l-1.4.3a5,5,0,0,0-1.6,1l-1.3-.6a2.9,2.9,0,0,0-1.4,0,6.3,6.3,0,0,0-2.9,1.8,18.7,18.7,0,0,0-2.9,3.8l-.4.7c-.2-.1-.4,0-.5.2l-1,2.1-2.5,5.4-3.5,7.6-4.1,8.7-5.2,10.5-3.6,7-2.4,4.1-1.3,2a3.7,3.7,0,0,1-1.8-2.5,15.9,15.9,0,0,1-.5-4.6,51.4,51.4,0,0,1,.5-6.3q.5-3.5,1.2-7.6t1.7-8.4l1.9-8.8q1.7-7.3,3.2-14.5t2.3-13.3A55.6,55.6,0,0,0,246,185q-.4-4.6-2.4-6.7t-6.1-1.3q-1.7.4-4.1,3.4a64.5,64.5,0,0,0-5.1,7.8q-2.7,4.8-5.6,10.7t-5.5,12q-2.3,5.3-4.5,11.3t-4,11.6q-1.7,5.6-2.7,10.4a30.3,30.3,0,0,0-.8,7.9,7.3,7.3,0,0,1-.6-3.5,40.9,40.9,0,0,1,.5-5.2q.4-3,1.2-6.4l1.6-7q1.2-5.1,2.2-10.1a85,85,0,0,0,1.5-9.3,34.8,34.8,0,0,0,0-7.7,8.9,8.9,0,0,0-2.2-5.2q-2.5-2.4-7.2-1.4a17.2,17.2,0,0,0-4.5,1.9,57.5,57.5,0,0,0-5.8,3.7q-3.1,2.2-6.4,5.1T179,213l-2.8,3-3.3,3.9q-1.7,2.1-3.3,4.5a38.8,38.8,0,0,0-2.7,4.8,21.6,21.6,0,0,0-1.6,4.8,10.7,10.7,0,0,0-.1,4.5,12.5,12.5,0,0,0,1.7,4.4,14,14,0,0,0,2.6,2.9l.7.5a11.9,11.9,0,0,0,2.4,1.3l2.1.7,2.1.4h.2a.8.8,0,0,0,.7-.6.4.4,0,0,0,0-.3c0-.1-.2-.3-.5-.4h-.5l-.9-.2-2.7-.5a12.2,12.2,0,0,1-2.6-.9l-.5-.4h-.1a11.8,11.8,0,0,1-2.4-2.7,12,12,0,0,1-1.6-4.1q-.9-4.3,2.6-10.6a68,68,0,0,1,10.9-14q3.1-3.2,6.3-6t6.3-5a55,55,0,0,1,5.7-3.7,16.7,16.7,0,0,1,4.4-1.8.8.8,0,0,1,.7.4q.8.9.6,3.7a50.5,50.5,0,0,1-.9,6.5q-.8,3.7-1.9,8l-2.2,8.3-1.7,6.4q-.8,3-1.4,5.6t-.8,4.4a9.1,9.1,0,0,0,0,2.9,16,16,0,0,0,2,5.2,13.7,13.7,0,0,0,2.9,3.4,9.4,9.4,0,0,0,3.2,1.8,6.1,6.1,0,0,0,3,.2h.1v-.2h.1v-.2a18.7,18.7,0,0,1,.2-6.2,79.8,79.8,0,0,1,2.2-9.6q1.5-5.5,4-12.2t5.6-14.1q2.7-6.2,5.3-11.7t5.1-9.8q2.4-4.3,4.5-7.2a19.4,19.4,0,0,1,3.5-4.1h.5a1.3,1.3,0,0,1,.3.6,8.7,8.7,0,0,1,.1,2.1q0,1.5-.3,4.3t-1,7.4q-1,6.1-2.4,13.6l-2.9,14.9-2.2,11q-1,5.2-1.7,9.4t-1.1,7.1a14.3,14.3,0,0,0-.1,3.9,16.2,16.2,0,0,0,2,5.2c-.3-.5.2,1.2,2.9,3.4a9.3,9.3,0,0,0,3.2,1.8,6.1,6.1,0,0,0,3,.2l.4-.2.8-.9,1.5-2.2,2.4-4.2,3.6-6.9,5-10.2,4.1-8.7,3.5-7.6.7-1.4a17.5,17.5,0,0,0-.4,3,15.6,15.6,0,0,0,.2,3.2,9.6,9.6,0,0,0,1.2,3.3,10.2,10.2,0,0,0,2.7,2.9,13.9,13.9,0,0,0,4.5,2.1h1.4a5.6,5.6,0,0,0,2.7-1.7,16.8,16.8,0,0,0,2.3-3.2,37.8,37.8,0,0,0,2-4.2h1.9a9.7,9.7,0,0,0,3.5-1.6,30.9,30.9,0,0,0,3.7-3.1q1.8-1.8,3.5-3.7l3-3.7,2.1-2.8c-.1.8-.2,1.7-.3,2.5l-.7,5.6-.6,5.2a9.6,9.6,0,0,0-.1,2.6,8.4,8.4,0,0,0,.5,1.4,8.2,8.2,0,0,0,.9,1.6l1.3,1.5,1.5,1.3a4.4,4.4,0,0,0,3.3.8,2.6,2.6,0,0,0,1-.7l.2-.2,1.3-1.5,1.4-1.9,1.3-2,1.1-1.9,2.7-4.8q1.4-2.6,2.7-5.4t2.4-5.5a50.2,50.2,0,0,0,1.8-5l.8.4.8.3a12.7,12.7,0,0,0,4.4.7,21.1,21.1,0,0,0,4.5-.6,20.3,20.3,0,0,0,4-1.4,13.1,13.1,0,0,0,2.9-1.8A.4.4,0,0,0,332.5,201.6ZM272.8,230a15.1,15.1,0,0,1-2.2,3,4.1,4.1,0,0,1-3,1.5q-3.9-1.4-4.3-6a13.9,13.9,0,0,1,.1-3.5,27.6,27.6,0,0,1,.8-3.7,26.7,26.7,0,0,1,1.3-3.5,29.8,29.8,0,0,1,1.6-3.1q-.8,5.7,2.4,8.8a5.4,5.4,0,0,0,1.8,1.3,10.3,10.3,0,0,0,3.2,1.1A33,33,0,0,1,272.8,230Zm2.2-4.7a9.3,9.3,0,0,1-3.1-1,4.1,4.1,0,0,1-1.1-2.2,11.7,11.7,0,0,1-.1-3.1,18.7,18.7,0,0,1,.6-3.4,14.7,14.7,0,0,1,1.3-3.2,8.2,8.2,0,0,1,2-2.5,2.5,2.5,0,0,1,2.1-.6,3.8,3.8,0,0,1,1.7,2.1,6.7,6.7,0,0,1-.1,1.9q-.2,1.4-.6,3.3t-1.1,4.2Q275.9,223,275,225.2ZM314.7,201q-.1,1-.3,2.3a9.6,9.6,0,0,1-3.6-5.9,2,2,0,0,1,0-.7.5.5,0,0,1,.4-.4h.8l1,.5a4.2,4.2,0,0,1,1,1,4.8,4.8,0,0,1,.7,1.5A3.9,3.9,0,0,1,314.7,201Z"/>
    </clipPath>
    <clipPath id="clip-path-3" transform="translate(-164.5 -83.5)">
      <path id="date-1" d="M264.1,240.1a5.2,5.2,0,0,1,2.8.1,8.1,8.1,0,0,1,2.4,1.3,8.9,8.9,0,0,1,1.8,1.9,5.4,5.4,0,0,1,.9,1.9,13.2,13.2,0,0,1,0,3.2q-.2,2.3-.6,5.6t-1,7.4q-.6,4.1-1.2,8.6t-1.5,10.6q-.8,5.4-1.3,10t-.8,8.1a20.6,20.6,0,0,0,.1,5,1.3,1.3,0,0,1-.1.6,1.9,1.9,0,0,1-.7.8,4.8,4.8,0,0,1-2,.8l-2.4.2a8.8,8.8,0,0,1-2.5-.4,5.9,5.9,0,0,1-2.1-1.1,3.3,3.3,0,0,1-1.1-1.9,11.3,11.3,0,0,1,.1-3q.3-2.2.8-5.6t1.3-7.6l1.7-8.9,2.4-12.8q1.2-6.4,2-11.6.5-3.5.8-5.8t.3-3.7c0-.9.1-1.6,0-2a2.6,2.6,0,0,0-.2-.9l-1.2.9-2,1.6-2.4,2.1-2.6,2.3q-2.9,2.6-4.4,4.2l-2.1,2.5a3.6,3.6,0,0,0-.7,1.3,2.6,2.6,0,0,0,0,.5q.3.4-.1.6h-.1a.3.3,0,0,1-.4-.2,1.7,1.7,0,0,1-.2-.9,3.8,3.8,0,0,1,.8-1.7,22.8,22.8,0,0,1,2.3-2.8q1.6-1.7,4.5-4.3l3.1-2.7,2.7-2.3,2.8-2.2h.2Z"/>
    </clipPath>
    <clipPath id="clip-path-4" transform="translate(-164.5 -83.5)">
      <path id="date-0" d="M313.3,241.3a14.7,14.7,0,0,1,6.6,5.4,18.8,18.8,0,0,1,3.2,8.6,41,41,0,0,1-.5,12.9,44.7,44.7,0,0,1-4.5,12.6,37.5,37.5,0,0,1-4.5,6.7,30.2,30.2,0,0,1-5.3,5,.3.3,0,0,1-.2.4l-1,.4-3,1.6a16.2,16.2,0,0,1-3.1,1,10.4,10.4,0,0,1-8.6-1.8,18.4,18.4,0,0,1-5.7-7.4,36.9,36.9,0,0,1-3.1-11.3,40.1,40.1,0,0,1-.1-8.8,45.6,45.6,0,0,1,1.7-8.7,41.3,41.3,0,0,1,3.3-7.9,28.8,28.8,0,0,1,4.7-6.4,21,21,0,0,1,6.9-4.7,15.9,15.9,0,0,1,7.7-1.1c.2,0,.4.1.4.4s-.1.3-.3.5a16.5,16.5,0,0,0-5.4,2.3,19.8,19.8,0,0,0-4,3.5,21.7,21.7,0,0,0-2.9,4.1,37.6,37.6,0,0,0-1.9,4.2,43.6,43.6,0,0,0-2.2,10,47.7,47.7,0,0,0,.1,10.9,43.1,43.1,0,0,0,2.9,12.1q2,4.7,5.1,6.4a8.1,8.1,0,0,0,7,.4,25.3,25.3,0,0,0,5.8-5,38.8,38.8,0,0,0,4.9-7.1,45.4,45.4,0,0,0,4.4-12.4,38.9,38.9,0,0,0,.5-12.6,18.4,18.4,0,0,0-3.1-8.2,13.6,13.6,0,0,0-6.2-5.1c-1.9-.7-6.1-.3-5.5-.7s-3.5,1-5.1,2.3-.4.1-.6-.1-.1-.4.1-.6a11.4,11.4,0,0,1,5.5-2.5A11.2,11.2,0,0,1,313.3,241.3Z"/>
    </clipPath>
    <clipPath id="clip-path-5" transform="translate(-164.5 -83.5)">
      <path id="th" d="M355,234.3a3.6,3.6,0,0,1,.6,2.5h0a5,5,0,0,1-.9,2.1,2.6,2.6,0,0,1-1,.8l-1.6.5-2.1.2h-2.5l-.5,1.2-.4,1.3-.9,3q-.5,1.8-.9,3.9t-.6,4.3a25.7,25.7,0,0,0,0,4.5,3.4,3.4,0,0,0,.1.7l.2.7.3.6.4.4h.1a12.3,12.3,0,0,1-.2-2.6,13.9,13.9,0,0,1,.2-2.2,12.3,12.3,0,0,1,.5-1.8l.5-1.4.8-1.4.9-1.2.9-.8.9-.4a2.2,2.2,0,0,1,2.1.3,1.7,1.7,0,0,1,.4.9,4.6,4.6,0,0,1,.1,1.2,10.9,10.9,0,0,1-.2,1.4l-.3,1.5-.3,1.6a9.4,9.4,0,0,0-.2,1.5,3.4,3.4,0,0,0,.2,1.2,1.2,1.2,0,0,0,.6.7l.6-.9.9-1.5,1-1.9,1.1-2.2,1.1-2.2,1-2h.2c.1.1.1.1.1.2l-.8,1.7-.8,1.8-1,2-1.2,2.3-.9,1.6-.6,1-.4.5-.2.2h-.9l-.9-.3a2.7,2.7,0,0,1-.8-.7,3.1,3.1,0,0,1-.5-1.2,4.4,4.4,0,0,1,.1-1.5c.1-.7.2-1.4.4-2.1l.3-1.4.2-1.4a6.7,6.7,0,0,0,.1-1.1.9.9,0,0,0-.2-.6h-.3a4.5,4.5,0,0,0-1.5,1.2,9.8,9.8,0,0,0-1.5,2.4l-.5,1.4a12.1,12.1,0,0,0-.5,1.8,13.5,13.5,0,0,0-.2,2.2,11.8,11.8,0,0,0,.3,2.6.1.1,0,0,1-.1.2h-.9l-.9-.2-.9-.5a4.1,4.1,0,0,1-.9-1,5.1,5.1,0,0,1-.6-1.6,11.4,11.4,0,0,1-.2-2.5,25.3,25.3,0,0,1,.3-3.1l-1.5,3.1-1.7,3.3-1.8,2.9a11.1,11.1,0,0,1-1.7,2c0,.1,0,.2-.1.2h-.1l-.8.4h-.4l-.9-.3a3.6,3.6,0,0,1-1.1-1,6.2,6.2,0,0,1-.9-2.3,12.5,12.5,0,0,1-.2-3.2,37.4,37.4,0,0,1,.4-4q.3-2.1.8-4.3t1.1-4l.8-2.5.9-2.5-4.2.3a21.5,21.5,0,0,0-3.8.8,12.4,12.4,0,0,0-3.1,1.4,6.9,6.9,0,0,0-2.2,2.3h-.3a7.2,7.2,0,0,1,2.2-2.3,12.8,12.8,0,0,1,3.2-1.5,21.4,21.4,0,0,1,3.9-.8l4.3-.3.9-2.2,1-1.8,1-1.3a1.8,1.8,0,0,1,.9-.6,1.7,1.7,0,0,1,1.4.2l.4.4.2.4v.5a.1.1,0,0,1-.1.2q-.3.1-1,1.2a25.1,25.1,0,0,0-1.5,3.1h7l1.3-3a23.2,23.2,0,0,1,1.4-2.6,10.6,10.6,0,0,1,1.5-1.9,3.1,3.1,0,0,1,1.5-.9h1.1l1.3.4,1.3.8A5.1,5.1,0,0,1,355,234.3Zm-20.6,29.5,1.2-1.3,1.3-1.8,1.3-2.2,1.3-2.4,1.2-2.4,1-2.1q.3-2.1.9-4.3t1.2-4.2l.4-1.3.5-1.3h-7l-.8,2.1-.8,2.5-.6,2.1-.7,2.5c-.2.9-.4,1.8-.6,2.8s-.3,2-.5,3-.2,2.1-.2,3.1a23.2,23.2,0,0,0,.1,3,2.6,2.6,0,0,0,.1.6l.2.6.3.6.3.4Zm20-24.9a5.1,5.1,0,0,0,.6-1.1,4.9,4.9,0,0,0,.3-1,4.1,4.1,0,0,0-.6-1.8,3,3,0,0,0-1.3-1.1,2.5,2.5,0,0,0-1.2-.2,2.5,2.5,0,0,0-1.2.4,6.7,6.7,0,0,0-1.4,2,37,37,0,0,0-1.9,4.2H350l2-.2,1.5-.4A2.2,2.2,0,0,0,354.4,238.8Z"/>
    </clipPath>
  </defs>
  <title>date_2</title>
  <g id="mask_sat">
    <path id="sat-2" data-name="sat" d="M280.6,150.2c-.2-.1-.3,0-.4.2l-.6,1.3-1.6,3.1-2.3,4.2q-1.3,2.3-2.7,4.5t-2.9,4a13.9,13.9,0,0,1-2.9,2.8h-.3l-.5-.7a5.7,5.7,0,0,1-.5-1.1,9.6,9.6,0,0,1-.3-1.3,7.1,7.1,0,0,1-.1-1.3,70.8,70.8,0,0,1,.5-8.3q.5-4,1.2-7.4t1.5-6.1q.8-2.7,1.5-4.6l.3-.7.3-.7a45,45,0,0,1,4.8-2.5,11,11,0,0,1,4.4-1q.3,0,.3-.3a.3.3,0,0,0-.3-.3,11.1,11.1,0,0,0-4.3.9A41.8,41.8,0,0,0,271,137a43.4,43.4,0,0,1,3.4-7q1.6-2.6,2.5-2.8l.2-.2a.3.3,0,0,0,0-.3l-.3-.5-.8-1-1.2-.8a2.3,2.3,0,0,0-1.5-.2,4.2,4.2,0,0,0-2.2,1.7,22.8,22.8,0,0,0-2.3,3.8,50,50,0,0,0-2.1,5q-1,2.8-1.8,5.5v.6l-3.5,1.9a3.6,3.6,0,0,1-2.5.4.9.9,0,0,1-.7-.6q-.1-.3-.3-.2c-.2.1-.2.2-.1.4a1.7,1.7,0,0,0,1,1,2.5,2.5,0,0,0,1.4,0l2.1-.8,2.5-1.3q-.7,2.7-1.4,5.7t-1.1,6l-.2,1.7-2.1,3.4-2.6,3.9-2.6,3.8-2.3,3.2-1.9,2.2a3.1,3.1,0,0,1-1.2.9h-.5a2.8,2.8,0,0,1-.3-2,24.7,24.7,0,0,1,.6-3.2q.4-1.8,1-3.4l.9-2.5a1.8,1.8,0,0,0,0-1.4,2.7,2.7,0,0,0-.6-.8l-.8-.7-.9-.5-.7-.3v-.2h-.4v.2l-.2.4-.4,1.1-1.4,3.1-1.3,2.8-1.1,2.1-.8,1.3h-.4l-.2-.3-.3-.6a5.6,5.6,0,0,1-.3-1.1,10.4,10.4,0,0,1-.1-1.6,17.2,17.2,0,0,1,.6-3.8,16.8,16.8,0,0,1,1.2-3,9.5,9.5,0,0,1,1.4-2.1,5.2,5.2,0,0,1,1.4-1.1l.6-.2h.7l.5.7.3.6.2.6c0,.2.1.3.3.2s.3-.1.2-.3v-.3l-.3-.7-.5-.9-.9-.9a5.4,5.4,0,0,0-4.2-.5,4.8,4.8,0,0,0-2.3,1.2,8.1,8.1,0,0,0-1.6,2.1,12.1,12.1,0,0,0-1,2.6,20.1,20.1,0,0,0-.4,2.1l-2.9,2.3-4.7,3.3-5.2,3.5a12.2,12.2,0,0,0-1.2-2.4,19,19,0,0,0-3.3-4.4l-4.2-4.1-2.8-2.7a35.3,35.3,0,0,1-2.6-2.8,20.2,20.2,0,0,1-2.1-3,12.1,12.1,0,0,1-1.3-3.2,10.3,10.3,0,0,1-.2-2.8l4.6.6a13.9,13.9,0,0,0,3.8-.2q10.7-2.3,9.3-9.1a4.7,4.7,0,0,0-1.3-2.2,9,9,0,0,0-2.8-1.9,13.9,13.9,0,0,0-3.9-1.1,13.7,13.7,0,0,0-4.7.2,12.9,12.9,0,0,0-7.1,4.2,14.6,14.6,0,0,0-2.2,3.5,13.5,13.5,0,0,0-1.1,4.1l-1-.2-1-.2-4.5-1.1-4.4-.9-4-.4a13.8,13.8,0,0,0-3.4.2,17.9,17.9,0,0,0-5.5,2,10.1,10.1,0,0,0-3,2.6h0a4.8,4.8,0,0,0-.8,1.9,3.2,3.2,0,0,0,.2,2.1,3.5,3.5,0,0,0,1.4,1.6l.6.2a.8.8,0,0,0,.7-.3c.1,0,.1-.1.1-.3s-.2-.4-.6-.7l-.7-.6a2.8,2.8,0,0,1-.6-.9,2.4,2.4,0,0,1-.2-1.2,3.7,3.7,0,0,1,.5-1.6,9.1,9.1,0,0,1,2.9-2.4,17.6,17.6,0,0,1,5.3-1.9,13.2,13.2,0,0,1,3.3-.2l4,.4,4.3.9,4.5,1.1,1,.3,1,.3a14.9,14.9,0,0,0,.3,4.2,5.9,5.9,0,0,0,1.1,2.3,16.6,16.6,0,0,0,2.1,2.3l2.8,2.3,3.3,2.4,3.4,2.4,3.3,2.6,2.9,2.8a17.6,17.6,0,0,1,2.3,3v.2h0l.6,1.1.5,1.2-4.3,2.9-4,2.6-3.2,2.1-2.2,1.4a4.5,4.5,0,0,0,.1-2.5,7.7,7.7,0,0,0-1.2-2.7,9.2,9.2,0,0,0-1.5-1.7,9.7,9.7,0,0,0-1.9-1.4,8.3,8.3,0,0,0-2.2-.8,5.5,5.5,0,0,0-2.4,0,13.2,13.2,0,0,0-4.9,2,10.7,10.7,0,0,0-2.9,2.9,7.7,7.7,0,0,0-1.2,3,7.1,7.1,0,0,0,0,2.5,10,10,0,0,0,2.4,4.7,13.6,13.6,0,0,0,4.8,3.3,17.9,17.9,0,0,0,5,1.4,14.4,14.4,0,0,0,4.8-.1l2.5-.7,2.9-1.1,2.9-1.6a20,20,0,0,0,2.8-2,14.8,14.8,0,0,0,4.3-5.8,11.6,11.6,0,0,0,.5-6.7v-.5l-.2-.5,5.3-3.6,4.7-3.4,2.5-1.9a17.9,17.9,0,0,0-.1,2.2,8.5,8.5,0,0,0,.1,1.6,3.4,3.4,0,0,0,.9,1.6,6.9,6.9,0,0,0,1.5,1.2l1.6.7a2.6,2.6,0,0,0,1.3.1h.2l.3-.3h0l1-1.6q.7-1.2,1.9-3.9h.1q-.3,1.2-.5,2.5t-.3,2.4a4.7,4.7,0,0,0,1.4,4.1,4.1,4.1,0,0,0,1.5.8l1.2.3h.4a4.2,4.2,0,0,0,1.7-1.4l2.5-3.1,2.9-4,2.8-4.1,2.2-3.4.3-.5c-.1.9-.2,1.8-.2,2.8a30,30,0,0,0,.1,5.2q.6,5.2,2.6,6.6l1,.4h.8a4.7,4.7,0,0,0,1.7-.8l.2-.2a15.1,15.1,0,0,0,2.9-2.8q1.5-1.8,2.9-4t2.7-4.4l2.3-4.1L280,152l.7-1.5C280.8,150.4,280.8,150.2,280.6,150.2Zm-73.7-8.7a13.6,13.6,0,0,1,1.1-2.4,18.7,18.7,0,0,1,1.5-2.1l1.7-1.8a12,12,0,0,1,4.4-2.6,6.6,6.6,0,0,1,4.1-.1,8.3,8.3,0,0,1,2.5,1.8,4.1,4.1,0,0,1,1.1,1.8q1.3,6.2-8.8,8.4a13.5,13.5,0,0,1-3.7.2l-4.5-.6A12.1,12.1,0,0,1,206.9,141.5ZM224,175.6a12.1,12.1,0,0,1-1,3.3,11.8,11.8,0,0,1-1.7,2.7,18.7,18.7,0,0,1-2.1,2.1,21.2,21.2,0,0,1-2.7,2l-2.9,1.6-2.8,1.1-2.5.7-1.7.2h-1.9a20.4,20.4,0,0,1-4.5-1.6,12.3,12.3,0,0,1-2.9-1.9,7.3,7.3,0,0,1-1.6-2.1,7.5,7.5,0,0,1-.7-2,6.6,6.6,0,0,1,.1-2.7,9.2,9.2,0,0,1,1-2.5,10.8,10.8,0,0,1,1.6-2.1,9.4,9.4,0,0,1,2-1.6,6.8,6.8,0,0,1,3.5-1.2,4.8,4.8,0,0,1,3.1,1h0l.9.9.8.9a6.9,6.9,0,0,1,1.2,3,3.7,3.7,0,0,1-.6,2.6l-.7,1.1,1.1-.7,1.5-.9,3.3-2.1,4.5-2.9,5.2-3.4v.8A10.8,10.8,0,0,1,224,175.6Z" transform="translate(-164.5 -83.5)"/>
    <g clip-path="url(#clip-path)">
      <path d="M177.5,150.5s-5,0-5-2,2-4,2-4l3-2a18.6,18.6,0,0,1,6.3-3c3.8-1,5.8,1,5.8,1l7,1.8,12.3,2.8,6.9-.2,5.3-2.5c1.5-.7,2.5-5.7,2.5-5.7l-1-2a6,6,0,0,0-5.2-3c-3.7,0-8.7,2-8.7,2l-5,7v7A28.8,28.8,0,0,0,208,154a76.8,76.8,0,0,0,7,6s5,3,7.5,7.5,1,8,1,8l-2,6-8,6-7,2s-6-.5-9.5-2.2a9.6,9.6,0,0,1-4.5-5.7s0-5.5,2.5-8.2,6.8-3,6.8-3,6.8,2.3,6.8,4.3a35.4,35.4,0,0,0,1,6l11.3-8.2,8.8-5.7,8-6,7.3-7.5-5.2,7.5s-2,3-1,6,3,3,3,3l6-11v14l2-1,7-8,5-8,4-14,5-12,3-4-10,32v9s0,3,2,4,5-3,5-3L275,161l2.5-6.5,6-8-30-2,4-2,5.8-.7,10.5-5.2,3.5-1.5,6.3-1.5" transform="translate(-164.5 -83.5)" stroke="#000" stroke-miterlimit="10" stroke-width="16"/>
    </g>
    <path id="sat-3" data-name="sat" d="M280.6,150.2c-.2-.1-.3,0-.4.2l-.6,1.3-1.6,3.1-2.3,4.2q-1.3,2.3-2.7,4.5t-2.9,4a13.9,13.9,0,0,1-2.9,2.8h-.3l-.5-.7a5.7,5.7,0,0,1-.5-1.1,9.6,9.6,0,0,1-.3-1.3,7.1,7.1,0,0,1-.1-1.3,70.8,70.8,0,0,1,.5-8.3q.5-4,1.2-7.4t1.5-6.1q.8-2.7,1.5-4.6l.3-.7.3-.7a45,45,0,0,1,4.8-2.5,11,11,0,0,1,4.4-1q.3,0,.3-.3a.3.3,0,0,0-.3-.3,11.1,11.1,0,0,0-4.3.9A41.8,41.8,0,0,0,271,137a43.4,43.4,0,0,1,3.4-7q1.6-2.6,2.5-2.8l.2-.2a.3.3,0,0,0,0-.3l-.3-.5-.8-1-1.2-.8a2.3,2.3,0,0,0-1.5-.2,4.2,4.2,0,0,0-2.2,1.7,22.8,22.8,0,0,0-2.3,3.8,50,50,0,0,0-2.1,5q-1,2.8-1.8,5.5v.6l-3.5,1.9a3.6,3.6,0,0,1-2.5.4.9.9,0,0,1-.7-.6q-.1-.3-.3-.2c-.2.1-.2.2-.1.4a1.7,1.7,0,0,0,1,1,2.5,2.5,0,0,0,1.4,0l2.1-.8,2.5-1.3q-.7,2.7-1.4,5.7t-1.1,6l-.2,1.7-2.1,3.4-2.6,3.9-2.6,3.8-2.3,3.2-1.9,2.2a3.1,3.1,0,0,1-1.2.9h-.5a2.8,2.8,0,0,1-.3-2,24.7,24.7,0,0,1,.6-3.2q.4-1.8,1-3.4l.9-2.5a1.8,1.8,0,0,0,0-1.4,2.7,2.7,0,0,0-.6-.8l-.8-.7-.9-.5-.7-.3v-.2h-.4v.2l-.2.4-.4,1.1-1.4,3.1-1.3,2.8-1.1,2.1-.8,1.3h-.4l-.2-.3-.3-.6a5.6,5.6,0,0,1-.3-1.1,10.4,10.4,0,0,1-.1-1.6,17.2,17.2,0,0,1,.6-3.8,16.8,16.8,0,0,1,1.2-3,9.5,9.5,0,0,1,1.4-2.1,5.2,5.2,0,0,1,1.4-1.1l.6-.2h.7l.5.7.3.6.2.6c0,.2.1.3.3.2s.3-.1.2-.3v-.3l-.3-.7-.5-.9-.9-.9a5.4,5.4,0,0,0-4.2-.5,4.8,4.8,0,0,0-2.3,1.2,8.1,8.1,0,0,0-1.6,2.1,12.1,12.1,0,0,0-1,2.6,20.1,20.1,0,0,0-.4,2.1l-2.9,2.3-4.7,3.3-5.2,3.5a12.2,12.2,0,0,0-1.2-2.4,19,19,0,0,0-3.3-4.4l-4.2-4.1-2.8-2.7a35.3,35.3,0,0,1-2.6-2.8,20.2,20.2,0,0,1-2.1-3,12.1,12.1,0,0,1-1.3-3.2,10.3,10.3,0,0,1-.2-2.8l4.6.6a13.9,13.9,0,0,0,3.8-.2q10.7-2.3,9.3-9.1a4.7,4.7,0,0,0-1.3-2.2,9,9,0,0,0-2.8-1.9,13.9,13.9,0,0,0-3.9-1.1,13.7,13.7,0,0,0-4.7.2,12.9,12.9,0,0,0-7.1,4.2,14.6,14.6,0,0,0-2.2,3.5,13.5,13.5,0,0,0-1.1,4.1l-1-.2-1-.2-4.5-1.1-4.4-.9-4-.4a13.8,13.8,0,0,0-3.4.2,17.9,17.9,0,0,0-5.5,2,10.1,10.1,0,0,0-3,2.6h0a4.8,4.8,0,0,0-.8,1.9,3.2,3.2,0,0,0,.2,2.1,3.5,3.5,0,0,0,1.4,1.6l.6.2a.8.8,0,0,0,.7-.3c.1,0,.1-.1.1-.3s-.2-.4-.6-.7l-.7-.6a2.8,2.8,0,0,1-.6-.9,2.4,2.4,0,0,1-.2-1.2,3.7,3.7,0,0,1,.5-1.6,9.1,9.1,0,0,1,2.9-2.4,17.6,17.6,0,0,1,5.3-1.9,13.2,13.2,0,0,1,3.3-.2l4,.4,4.3.9,4.5,1.1,1,.3,1,.3a14.9,14.9,0,0,0,.3,4.2,5.9,5.9,0,0,0,1.1,2.3,16.6,16.6,0,0,0,2.1,2.3l2.8,2.3,3.3,2.4,3.4,2.4,3.3,2.6,2.9,2.8a17.6,17.6,0,0,1,2.3,3v.2h0l.6,1.1.5,1.2-4.3,2.9-4,2.6-3.2,2.1-2.2,1.4a4.5,4.5,0,0,0,.1-2.5,7.7,7.7,0,0,0-1.2-2.7,9.2,9.2,0,0,0-1.5-1.7,9.7,9.7,0,0,0-1.9-1.4,8.3,8.3,0,0,0-2.2-.8,5.5,5.5,0,0,0-2.4,0,13.2,13.2,0,0,0-4.9,2,10.7,10.7,0,0,0-2.9,2.9,7.7,7.7,0,0,0-1.2,3,7.1,7.1,0,0,0,0,2.5,10,10,0,0,0,2.4,4.7,13.6,13.6,0,0,0,4.8,3.3,17.9,17.9,0,0,0,5,1.4,14.4,14.4,0,0,0,4.8-.1l2.5-.7,2.9-1.1,2.9-1.6a20,20,0,0,0,2.8-2,14.8,14.8,0,0,0,4.3-5.8,11.6,11.6,0,0,0,.5-6.7v-.5l-.2-.5,5.3-3.6,4.7-3.4,2.5-1.9a17.9,17.9,0,0,0-.1,2.2,8.5,8.5,0,0,0,.1,1.6,3.4,3.4,0,0,0,.9,1.6,6.9,6.9,0,0,0,1.5,1.2l1.6.7a2.6,2.6,0,0,0,1.3.1h.2l.3-.3h0l1-1.6q.7-1.2,1.9-3.9h.1q-.3,1.2-.5,2.5t-.3,2.4a4.7,4.7,0,0,0,1.4,4.1,4.1,4.1,0,0,0,1.5.8l1.2.3h.4a4.2,4.2,0,0,0,1.7-1.4l2.5-3.1,2.9-4,2.8-4.1,2.2-3.4.3-.5c-.1.9-.2,1.8-.2,2.8a30,30,0,0,0,.1,5.2q.6,5.2,2.6,6.6l1,.4h.8a4.7,4.7,0,0,0,1.7-.8l.2-.2a15.1,15.1,0,0,0,2.9-2.8q1.5-1.8,2.9-4t2.7-4.4l2.3-4.1L280,152l.7-1.5C280.8,150.4,280.8,150.2,280.6,150.2Zm-73.7-8.7a13.6,13.6,0,0,1,1.1-2.4,18.7,18.7,0,0,1,1.5-2.1l1.7-1.8a12,12,0,0,1,4.4-2.6,6.6,6.6,0,0,1,4.1-.1,8.3,8.3,0,0,1,2.5,1.8,4.1,4.1,0,0,1,1.1,1.8q1.3,6.2-8.8,8.4a13.5,13.5,0,0,1-3.7.2l-4.5-.6A12.1,12.1,0,0,1,206.9,141.5ZM224,175.6a12.1,12.1,0,0,1-1,3.3,11.8,11.8,0,0,1-1.7,2.7,18.7,18.7,0,0,1-2.1,2.1,21.2,21.2,0,0,1-2.7,2l-2.9,1.6-2.8,1.1-2.5.7-1.7.2h-1.9a20.4,20.4,0,0,1-4.5-1.6,12.3,12.3,0,0,1-2.9-1.9,7.3,7.3,0,0,1-1.6-2.1,7.5,7.5,0,0,1-.7-2,6.6,6.6,0,0,1,.1-2.7,9.2,9.2,0,0,1,1-2.5,10.8,10.8,0,0,1,1.6-2.1,9.4,9.4,0,0,1,2-1.6,6.8,6.8,0,0,1,3.5-1.2,4.8,4.8,0,0,1,3.1,1h0l.9.9.8.9a6.9,6.9,0,0,1,1.2,3,3.7,3.7,0,0,1-.6,2.6l-.7,1.1,1.1-.7,1.5-.9,3.3-2.1,4.5-2.9,5.2-3.4v.8A10.8,10.8,0,0,1,224,175.6Z" transform="translate(-164.5 -83.5)" fill="none" stroke="#000" stroke-miterlimit="10" stroke-width="2"/>
  </g>
  <g id="mask_nov">
    <path id="nov-2" data-name="nov" d="M332.5,201.6c-.2-.3-.4-.3-.7-.1a10.3,10.3,0,0,1-2.7,1.7,18.9,18.9,0,0,1-3.8,1.3,21.4,21.4,0,0,1-4.3.5,11.6,11.6,0,0,1-4.2-.6l-1.7-.7a16.6,16.6,0,0,0,.5-2.7,4.5,4.5,0,0,0-.2-2,5.3,5.3,0,0,0-2-3,3.2,3.2,0,0,0-2.5-.8h-.1l-.7.5q-.5.4-.2,1.6a10.1,10.1,0,0,0,4.2,6.6,39.4,39.4,0,0,1-1.5,4.6q-1,2.5-2.3,5.3t-2.7,5.5q-1.5,2.8-3,5.4t-3.1,4.9a18.1,18.1,0,0,1-1.9,2.4c-.4.1-.7.1-.8-.1a3.2,3.2,0,0,1-.8-2.1,24.3,24.3,0,0,1-.1-3.8q.1-2.2.4-4.9t.7-5.2l.8-4.9.7-3.9.4-1.9a10.4,10.4,0,0,0,.2-1.2,3,3,0,0,0-.9-2.7,9.9,9.9,0,0,0-2.6-1.9l-2.7-1.1-1.4-.4a.3.3,0,0,0-.4.2.2.2,0,0,0,0,.4,11.9,11.9,0,0,1,.5,3.7q0,2.4-.2,5.3c0,.6-.1,1.1-.1,1.7l-.8,1.1-2.1,2.8-3,3.6q-1.7,2-3.5,3.7a29.7,29.7,0,0,1-3.6,3,9.1,9.1,0,0,1-3.3,1.6h-1.3q.9-2.2,1.5-4.5t1.1-4.3q.4-2,.6-3.4a7.2,7.2,0,0,0,.1-2,4.7,4.7,0,0,0-2.1-2.6h0a8,8,0,0,0-1.8-1,6.2,6.2,0,0,0-2.1-.4l-1.4.3a5,5,0,0,0-1.6,1l-1.3-.6a2.9,2.9,0,0,0-1.4,0,6.3,6.3,0,0,0-2.9,1.8,18.7,18.7,0,0,0-2.9,3.8l-.4.7c-.2-.1-.4,0-.5.2l-1,2.1-2.5,5.4-3.5,7.6-4.1,8.7-5.2,10.5-3.6,7-2.4,4.1-1.3,2a3.7,3.7,0,0,1-1.8-2.5,15.9,15.9,0,0,1-.5-4.6,51.4,51.4,0,0,1,.5-6.3q.5-3.5,1.2-7.6t1.7-8.4l1.9-8.8q1.7-7.3,3.2-14.5t2.3-13.3A55.6,55.6,0,0,0,246,185q-.4-4.6-2.4-6.7t-6.1-1.3q-1.7.4-4.1,3.4a64.5,64.5,0,0,0-5.1,7.8q-2.7,4.8-5.6,10.7t-5.5,12q-2.3,5.3-4.5,11.3t-4,11.6q-1.7,5.6-2.7,10.4a30.3,30.3,0,0,0-.8,7.9,7.3,7.3,0,0,1-.6-3.5,40.9,40.9,0,0,1,.5-5.2q.4-3,1.2-6.4l1.6-7q1.2-5.1,2.2-10.1a85,85,0,0,0,1.5-9.3,34.8,34.8,0,0,0,0-7.7,8.9,8.9,0,0,0-2.2-5.2q-2.5-2.4-7.2-1.4a17.2,17.2,0,0,0-4.5,1.9,57.5,57.5,0,0,0-5.8,3.7q-3.1,2.2-6.4,5.1T179,213l-2.8,3-3.3,3.9q-1.7,2.1-3.3,4.5a38.8,38.8,0,0,0-2.7,4.8,21.6,21.6,0,0,0-1.6,4.8,10.7,10.7,0,0,0-.1,4.5,12.5,12.5,0,0,0,1.7,4.4,14,14,0,0,0,2.6,2.9l.7.5a11.9,11.9,0,0,0,2.4,1.3l2.1.7,2.1.4h.2a.8.8,0,0,0,.7-.6.4.4,0,0,0,0-.3c0-.1-.2-.3-.5-.4h-.5l-.9-.2-2.7-.5a12.2,12.2,0,0,1-2.6-.9l-.5-.4h-.1a11.8,11.8,0,0,1-2.4-2.7,12,12,0,0,1-1.6-4.1q-.9-4.3,2.6-10.6a68,68,0,0,1,10.9-14q3.1-3.2,6.3-6t6.3-5a55,55,0,0,1,5.7-3.7,16.7,16.7,0,0,1,4.4-1.8.8.8,0,0,1,.7.4q.8.9.6,3.7a50.5,50.5,0,0,1-.9,6.5q-.8,3.7-1.9,8l-2.2,8.3-1.7,6.4q-.8,3-1.4,5.6t-.8,4.4a9.1,9.1,0,0,0,0,2.9,16,16,0,0,0,2,5.2,13.7,13.7,0,0,0,2.9,3.4,9.4,9.4,0,0,0,3.2,1.8,6.1,6.1,0,0,0,3,.2h.1v-.2h.1v-.2a18.7,18.7,0,0,1,.2-6.2,79.8,79.8,0,0,1,2.2-9.6q1.5-5.5,4-12.2t5.6-14.1q2.7-6.2,5.3-11.7t5.1-9.8q2.4-4.3,4.5-7.2a19.4,19.4,0,0,1,3.5-4.1h.5a1.3,1.3,0,0,1,.3.6,8.7,8.7,0,0,1,.1,2.1q0,1.5-.3,4.3t-1,7.4q-1,6.1-2.4,13.6l-2.9,14.9-2.2,11q-1,5.2-1.7,9.4t-1.1,7.1a14.3,14.3,0,0,0-.1,3.9,16.2,16.2,0,0,0,2,5.2c-.3-.5.2,1.2,2.9,3.4a9.3,9.3,0,0,0,3.2,1.8,6.1,6.1,0,0,0,3,.2l.4-.2.8-.9,1.5-2.2,2.4-4.2,3.6-6.9,5-10.2,4.1-8.7,3.5-7.6.7-1.4a17.5,17.5,0,0,0-.4,3,15.6,15.6,0,0,0,.2,3.2,9.6,9.6,0,0,0,1.2,3.3,10.2,10.2,0,0,0,2.7,2.9,13.9,13.9,0,0,0,4.5,2.1h1.4a5.6,5.6,0,0,0,2.7-1.7,16.8,16.8,0,0,0,2.3-3.2,37.8,37.8,0,0,0,2-4.2h1.9a9.7,9.7,0,0,0,3.5-1.6,30.9,30.9,0,0,0,3.7-3.1q1.8-1.8,3.5-3.7l3-3.7,2.1-2.8c-.1.8-.2,1.7-.3,2.5l-.7,5.6-.6,5.2a9.6,9.6,0,0,0-.1,2.6,8.4,8.4,0,0,0,.5,1.4,8.2,8.2,0,0,0,.9,1.6l1.3,1.5,1.5,1.3a4.4,4.4,0,0,0,3.3.8,2.6,2.6,0,0,0,1-.7l.2-.2,1.3-1.5,1.4-1.9,1.3-2,1.1-1.9,2.7-4.8q1.4-2.6,2.7-5.4t2.4-5.5a50.2,50.2,0,0,0,1.8-5l.8.4.8.3a12.7,12.7,0,0,0,4.4.7,21.1,21.1,0,0,0,4.5-.6,20.3,20.3,0,0,0,4-1.4,13.1,13.1,0,0,0,2.9-1.8A.4.4,0,0,0,332.5,201.6ZM272.8,230a15.1,15.1,0,0,1-2.2,3,4.1,4.1,0,0,1-3,1.5q-3.9-1.4-4.3-6a13.9,13.9,0,0,1,.1-3.5,27.6,27.6,0,0,1,.8-3.7,26.7,26.7,0,0,1,1.3-3.5,29.8,29.8,0,0,1,1.6-3.1q-.8,5.7,2.4,8.8a5.4,5.4,0,0,0,1.8,1.3,10.3,10.3,0,0,0,3.2,1.1A33,33,0,0,1,272.8,230Zm2.2-4.7a9.3,9.3,0,0,1-3.1-1,4.1,4.1,0,0,1-1.1-2.2,11.7,11.7,0,0,1-.1-3.1,18.7,18.7,0,0,1,.6-3.4,14.7,14.7,0,0,1,1.3-3.2,8.2,8.2,0,0,1,2-2.5,2.5,2.5,0,0,1,2.1-.6,3.8,3.8,0,0,1,1.7,2.1,6.7,6.7,0,0,1-.1,1.9q-.2,1.4-.6,3.3t-1.1,4.2Q275.9,223,275,225.2ZM314.7,201q-.1,1-.3,2.3a9.6,9.6,0,0,1-3.6-5.9,2,2,0,0,1,0-.7.5.5,0,0,1,.4-.4h.8l1,.5a4.2,4.2,0,0,1,1,1,4.8,4.8,0,0,1,.7,1.5A3.9,3.9,0,0,1,314.7,201Z" transform="translate(-164.5 -83.5)"/>
    <g clip-path="url(#clip-path-2)">
      <path d="M181.5,248.5l-9-2-5-4a29.6,29.6,0,0,1-2-9c0-4,4-9,4-9l12-14,16-12,5-1a7.8,7.8,0,0,1,5,2c2,2,0,14,0,14l-6,20-3,9,3,9,4,2,.8-7.5,2.3-12.5L221,203l9-16,6.5-8.5s1-2,4,0,1,8,1,8l-5,31-6,26-1,10s3,9,4,10,4-2,4-2l8-13,8.1-16.7,5.9-14,8-9.2-8,12s0,8,2,10,3.5,3.8,3.5,3.8l2.5,1.3s3-1,6-5a12.7,12.7,0,0,0,2.8-7.7l1.3-6.2s1-4,0-7a3.1,3.1,0,0,0-4-2l-4,6-1,6,4,5,5,2,7-6L290,215l3.5-5.5,1-10a7.7,7.7,0,0,1,2,5c0,3-2,16-2,16v9l2,3,3-1,6.5-7.7,4.5-8.2,3.3-9.5,1.8-6.5-2-3s-1-3-3-1,.2,4.5.2,4.5l2,3,5.8,2.5,4.9-.6,6.1-1.4,6-4" transform="translate(-164.5 -83.5)" stroke="#000" stroke-miterlimit="10"/>
    </g>
  </g>
  <g id="mask_1">
    <path id="date-1-2" data-name="date-1" d="M264.1,240.1a5.2,5.2,0,0,1,2.8.1,8.1,8.1,0,0,1,2.4,1.3,8.9,8.9,0,0,1,1.8,1.9,5.4,5.4,0,0,1,.9,1.9,13.2,13.2,0,0,1,0,3.2q-.2,2.3-.6,5.6t-1,7.4q-.6,4.1-1.2,8.6t-1.5,10.6q-.8,5.4-1.3,10t-.8,8.1a20.6,20.6,0,0,0,.1,5,1.3,1.3,0,0,1-.1.6,1.9,1.9,0,0,1-.7.8,4.8,4.8,0,0,1-2,.8l-2.4.2a8.8,8.8,0,0,1-2.5-.4,5.9,5.9,0,0,1-2.1-1.1,3.3,3.3,0,0,1-1.1-1.9,11.3,11.3,0,0,1,.1-3q.3-2.2.8-5.6t1.3-7.6l1.7-8.9,2.4-12.8q1.2-6.4,2-11.6.5-3.5.8-5.8t.3-3.7c0-.9.1-1.6,0-2a2.6,2.6,0,0,0-.2-.9l-1.2.9-2,1.6-2.4,2.1-2.6,2.3q-2.9,2.6-4.4,4.2l-2.1,2.5a3.6,3.6,0,0,0-.7,1.3,2.6,2.6,0,0,0,0,.5q.3.4-.1.6h-.1a.3.3,0,0,1-.4-.2,1.7,1.7,0,0,1-.2-.9,3.8,3.8,0,0,1,.8-1.7,22.8,22.8,0,0,1,2.3-2.8q1.6-1.7,4.5-4.3l3.1-2.7,2.7-2.3,2.8-2.2h.2Z" transform="translate(-164.5 -83.5)"/>
    <g clip-path="url(#clip-path-3)">
      <path d="M246.5,259.5l2-3,2-5,8-6,6-6s3,1,4,3,0,7,0,7l-3,17-4,22s-2,9-2,12,2,9,2,9" transform="translate(-164.5 -83.5)" stroke="#000" stroke-miterlimit="10"/>
    </g>
  </g>
  <g id="mask_0">
    <path id="date-0-2" data-name="date-0" d="M313.3,241.3a14.7,14.7,0,0,1,6.6,5.4,18.8,18.8,0,0,1,3.2,8.6,41,41,0,0,1-.5,12.9,44.7,44.7,0,0,1-4.5,12.6,37.5,37.5,0,0,1-4.5,6.7,30.2,30.2,0,0,1-5.3,5,.3.3,0,0,1-.2.4l-1,.4-3,1.6a16.2,16.2,0,0,1-3.1,1,10.4,10.4,0,0,1-8.6-1.8,18.4,18.4,0,0,1-5.7-7.4,36.9,36.9,0,0,1-3.1-11.3,40.1,40.1,0,0,1-.1-8.8,45.6,45.6,0,0,1,1.7-8.7,41.3,41.3,0,0,1,3.3-7.9,28.8,28.8,0,0,1,4.7-6.4,21,21,0,0,1,6.9-4.7,15.9,15.9,0,0,1,7.7-1.1c.2,0,.4.1.4.4s-.1.3-.3.5a16.5,16.5,0,0,0-5.4,2.3,19.8,19.8,0,0,0-4,3.5,21.7,21.7,0,0,0-2.9,4.1,37.6,37.6,0,0,0-1.9,4.2,43.6,43.6,0,0,0-2.2,10,47.7,47.7,0,0,0,.1,10.9,43.1,43.1,0,0,0,2.9,12.1q2,4.7,5.1,6.4a8.1,8.1,0,0,0,7,.4,25.3,25.3,0,0,0,5.8-5,38.8,38.8,0,0,0,4.9-7.1,45.4,45.4,0,0,0,4.4-12.4,38.9,38.9,0,0,0,.5-12.6,18.4,18.4,0,0,0-3.1-8.2,13.6,13.6,0,0,0-6.2-5.1c-1.9-.7-6.1-.3-5.5-.7s-3.5,1-5.1,2.3-.4.1-.6-.1-.1-.4.1-.6a11.4,11.4,0,0,1,5.5-2.5A11.2,11.2,0,0,1,313.3,241.3Z" transform="translate(-164.5 -83.5)"/>
    <g clip-path="url(#clip-path-4)">
      <path d="M312.5,237.5s-7,0-10.5,1-7.5,6-7.5,6-5,9-6,12-3,13-3,13,1,10,3,14,4,8,5,9,4,2,7,2,7-2,7-2l7-6.7,6.2-10.8,1.7-11.5s.9-7.3,0-11.7-4.9-7.1-4.9-7.1l-4-2.2a21.8,21.8,0,0,0-6-1c-3,0-8,4-8,4" transform="translate(-164.5 -83.5)" stroke="#000" stroke-miterlimit="10"/>
    </g>
  </g>
  <g id="mask_th">
    <path id="th-2" data-name="th" d="M355,234.3a3.6,3.6,0,0,1,.6,2.5h0a5,5,0,0,1-.9,2.1,2.6,2.6,0,0,1-1,.8l-1.6.5-2.1.2h-2.5l-.5,1.2-.4,1.3-.9,3q-.5,1.8-.9,3.9t-.6,4.3a25.7,25.7,0,0,0,0,4.5,3.4,3.4,0,0,0,.1.7l.2.7.3.6.4.4h.1a12.3,12.3,0,0,1-.2-2.6,13.9,13.9,0,0,1,.2-2.2,12.3,12.3,0,0,1,.5-1.8l.5-1.4.8-1.4.9-1.2.9-.8.9-.4a2.2,2.2,0,0,1,2.1.3,1.7,1.7,0,0,1,.4.9,4.6,4.6,0,0,1,.1,1.2,10.9,10.9,0,0,1-.2,1.4l-.3,1.5-.3,1.6a9.4,9.4,0,0,0-.2,1.5,3.4,3.4,0,0,0,.2,1.2,1.2,1.2,0,0,0,.6.7l.6-.9.9-1.5,1-1.9,1.1-2.2,1.1-2.2,1-2h.2c.1.1.1.1.1.2l-.8,1.7-.8,1.8-1,2-1.2,2.3-.9,1.6-.6,1-.4.5-.2.2h-.9l-.9-.3a2.7,2.7,0,0,1-.8-.7,3.1,3.1,0,0,1-.5-1.2,4.4,4.4,0,0,1,.1-1.5c.1-.7.2-1.4.4-2.1l.3-1.4.2-1.4a6.7,6.7,0,0,0,.1-1.1.9.9,0,0,0-.2-.6h-.3a4.5,4.5,0,0,0-1.5,1.2,9.8,9.8,0,0,0-1.5,2.4l-.5,1.4a12.1,12.1,0,0,0-.5,1.8,13.5,13.5,0,0,0-.2,2.2,11.8,11.8,0,0,0,.3,2.6.1.1,0,0,1-.1.2h-.9l-.9-.2-.9-.5a4.1,4.1,0,0,1-.9-1,5.1,5.1,0,0,1-.6-1.6,11.4,11.4,0,0,1-.2-2.5,25.3,25.3,0,0,1,.3-3.1l-1.5,3.1-1.7,3.3-1.8,2.9a11.1,11.1,0,0,1-1.7,2c0,.1,0,.2-.1.2h-.1l-.8.4h-.4l-.9-.3a3.6,3.6,0,0,1-1.1-1,6.2,6.2,0,0,1-.9-2.3,12.5,12.5,0,0,1-.2-3.2,37.4,37.4,0,0,1,.4-4q.3-2.1.8-4.3t1.1-4l.8-2.5.9-2.5-4.2.3a21.5,21.5,0,0,0-3.8.8,12.4,12.4,0,0,0-3.1,1.4,6.9,6.9,0,0,0-2.2,2.3h-.3a7.2,7.2,0,0,1,2.2-2.3,12.8,12.8,0,0,1,3.2-1.5,21.4,21.4,0,0,1,3.9-.8l4.3-.3.9-2.2,1-1.8,1-1.3a1.8,1.8,0,0,1,.9-.6,1.7,1.7,0,0,1,1.4.2l.4.4.2.4v.5a.1.1,0,0,1-.1.2q-.3.1-1,1.2a25.1,25.1,0,0,0-1.5,3.1h7l1.3-3a23.2,23.2,0,0,1,1.4-2.6,10.6,10.6,0,0,1,1.5-1.9,3.1,3.1,0,0,1,1.5-.9h1.1l1.3.4,1.3.8A5.1,5.1,0,0,1,355,234.3Zm-20.6,29.5,1.2-1.3,1.3-1.8,1.3-2.2,1.3-2.4,1.2-2.4,1-2.1q.3-2.1.9-4.3t1.2-4.2l.4-1.3.5-1.3h-7l-.8,2.1-.8,2.5-.6,2.1-.7,2.5c-.2.9-.4,1.8-.6,2.8s-.3,2-.5,3-.2,2.1-.2,3.1a23.2,23.2,0,0,0,.1,3,2.6,2.6,0,0,0,.1.6l.2.6.3.6.3.4Zm20-24.9a5.1,5.1,0,0,0,.6-1.1,4.9,4.9,0,0,0,.3-1,4.1,4.1,0,0,0-.6-1.8,3,3,0,0,0-1.3-1.1,2.5,2.5,0,0,0-1.2-.2,2.5,2.5,0,0,0-1.2.4,6.7,6.7,0,0,0-1.4,2,37,37,0,0,0-1.9,4.2H350l2-.2,1.5-.4A2.2,2.2,0,0,0,354.4,238.8Z" transform="translate(-164.5 -83.5)"/>
    <g clip-path="url(#clip-path-5)">
      <path d="M341.5,231.5l-4,5-3,8-2,8a55.3,55.3,0,0,0-1,9c0,4-1,1,1,2l2,1,2-4,3.9-6.2-18.9-7.7-1-1a11.4,11.4,0,0,1,4.4-3.9c2.6-1.1,7.7-1.2,7.7-1.2l8.9-.4,8.5.4s3,.3,4.2-.8a4.7,4.7,0,0,0,1.3-3.1l-2-3a2.2,2.2,0,0,0-3-1,7.5,7.5,0,0,0-3,3l-3,7s-1,6-1,8v7l1,3,1,1v-5l2-5,2-2a1.4,1.4,0,0,1,2,0c1,1,0,3,0,3l-1,5s0,2,1,2h1l2-4,3-5,2-4" transform="translate(-164.5 -83.5)" stroke="#000" stroke-miterlimit="10" stroke-width="9"/>
    </g>
  </g>
</svg>
